<?xml version="1.0" encoding="UTF-8"?>
<svg xmlns="http://www.w3.org/2000/svg" viewBox="0 0 4000 1000">
  <defs>
    <style>
      .cls-1 {
        fill: #fff;
      }
    </style>
  </defs>
  <g id="Calque_2" data-name="Calque 2">
    <rect width="4000" height="1000"/>
  </g>
  <g id="Calque_1" data-name="Calque 1">
    <path class="cls-1" d="M2691.68,140.25V858.75H1307.32V140.25h1384.35m15.75-15.75H1291.57V874.5h1415.85V124.5h0Z"/>
    <path class="cls-1" d="M1874.03,389.48v15.69h-46.13v-9.62l46.13-6.07m1.25-1.43l-48.63,6.4v11.97h48.63v-18.37h0Z"/>
    <path class="cls-1" d="M1979.08,375.65v29.52h-46.13v-23.45l46.13-6.07m1.25-1.43l-48.63,6.4v25.8h48.63v-32.2h0Z"/>
    <g>
      <path class="cls-1" d="M1829.15,248.07h42.38v28.13l4.54-6.43c12.09-17.12,27.94-25.44,48.46-25.44,16.26,0,29.35,4.94,38.89,14.68,9.56,9.76,14.4,23.9,14.4,42.05v70.97l-43.63,5.74v-67.05c0-19.58-9.81-29.93-28.37-29.93-9.37,0-17.31,3.18-23.59,9.46-6.28,6.28-9.46,15.16-9.46,26.4v69.21l-43.63,5.74V248.07Z"/>
      <path class="cls-1" d="M1924.53,246.84c15.78,0,27.92,4.56,37.1,13.93,9.08,9.27,13.69,22.83,13.69,40.3v68.78l-38.63,5.08v-64.2c0-20.91-10.96-32.43-30.87-32.43-10.06,0-18.59,3.43-25.36,10.19-6.76,6.77-10.19,16.24-10.19,28.16v67.02l-38.63,5.08V250.57h37.38v33.51l9.08-12.87c11.58-16.4,26.77-24.38,46.42-24.38m0-5c-21.2,0-38.03,8.83-50.5,26.5v-22.76h-47.38v148.88l48.63-6.4v-71.41c0-10.6,2.91-18.81,8.73-24.63,5.82-5.81,13.09-8.73,21.82-8.73,17.25,0,25.87,9.15,25.87,27.43v69.9l48.63-6.4v-73.16c0-18.91-5.04-33.51-15.12-43.8-10.08-10.29-23.64-15.43-40.68-15.43h0Z"/>
    </g>
    <g>
      <path class="cls-1" d="M1484.72,798.62v-85.7l-4.53,6.33c-10.61,14.82-25.34,22.02-45.04,22.02-20.72,0-37.27-7.35-49.19-21.85-.94-1.12-1.84-2.27-2.7-3.45l65.91-8.68c3.99-.04,7.69-.53,11.03-1.45l68.15-8.97v101.75h-43.63Z"/>
      <path class="cls-1" d="M1525.84,699.72v96.4h-38.63v-90.99l-9.07,12.66c-10.11,14.12-24.18,20.98-43,20.98-20.18,0-35.62-6.82-47.22-20.89l61.41-8.08c4.06-.05,7.88-.56,11.35-1.49l65.16-8.58m5-5.7l-71.14,9.37h0c-3.23,.91-6.79,1.38-10.69,1.41h-.02l-70.11,9.23c1.58,2.44,3.3,4.77,5.15,6.98,12.47,15.17,29.51,22.76,51.12,22.76,20.37,0,36.06-7.69,47.07-23.07v80.42h48.63v-107.1h0Z"/>
    </g>
    <path class="cls-1" d="M1435.15,576.69c20.86,0,36.76,8.1,47.27,24.06l2.29,3.48v-23.8h44.88v112.49l-61.44,8.09c3.98-2.53,7.24-6.01,9.75-10.4,4.31-7.53,6.5-17.97,6.5-31.01,0-30.82-12.06-46.45-35.85-46.45-11.17,0-20,4.21-26.25,12.5-6.17,8.18-9.29,20.02-9.29,35.2,0,18.67,4.69,31.72,13.93,38.8,3.24,2.48,7.06,4.24,11.43,5.29l-58.87,7.75c-1.09-1.71-2.12-3.51-3.08-5.36-6.74-12.98-10.15-29.04-10.15-47.72,0-25.35,6.3-45.74,18.73-60.62,12.16-14.8,29.03-22.3,50.15-22.3m0-1.25c-21.61,0-38.65,7.58-51.12,22.75-12.68,15.17-19.01,35.64-19.01,61.41,0,18.97,3.43,35.07,10.29,48.29,1.1,2.12,2.29,4.16,3.57,6.13l70.11-9.23c-.15,0-.29,0-.44,0-8.55,0-15.5-2.05-20.85-6.15-8.96-6.86-13.44-19.46-13.44-37.81,0-14.96,3.01-26.44,9.04-34.44,6.03-8,14.44-12,25.25-12,23.07,0,34.6,15.07,34.6,45.2,0,12.88-2.11,23.01-6.33,30.39-3.9,6.82-9.6,11.29-17.12,13.39l71.14-9.37v-114.84h-47.38v20.88c-10.8-16.41-26.91-24.62-48.32-24.62h0Z"/>
    <path class="cls-1" d="M1711.32,580.43v88.57l-46.48,6.12c.23-1.96,.35-4.03,.35-6.17v-88.52h46.13m1.25-1.25h-48.63v89.77c0,2.69-.19,5.23-.57,7.62l49.2-6.48v-90.91h0Z"/>
    <path class="cls-1" d="M1606.28,580.43v94.44c0,2.82,.2,5.46,.61,7.88l-46.64,6.14c-.06-1.41-.09-2.87-.09-4.35v-104.11h46.13m1.25-1.25h-48.63v105.36c0,1.97,.05,3.89,.17,5.77l49.29-6.49c-.55-2.69-.83-5.67-.83-8.94v-95.69h0Z"/>
    <g>
      <path class="cls-1" d="M1614.69,741.27c-16.26,0-29.34-4.94-38.89-14.69-8.12-8.28-12.85-19.75-14.07-34.1l44.73-5.89c3.33,12.09,12.38,18.21,26.95,18.21,9.37,0,17.31-3.18,23.59-9.46,4.31-4.31,7.17-9.87,8.53-16.54l44.56-5.87v64.58h-42.38v-28.13l-4.54,6.43c-12.09,17.12-27.94,25.44-48.46,25.44Z"/>
      <path class="cls-1" d="M1707.57,675.79v59.23h-37.38v-33.51l-9.08,12.87c-11.58,16.41-26.77,24.39-46.42,24.39-15.78,0-27.92-4.56-37.11-13.94-7.25-7.4-11.66-17.54-13.13-30.19l40.24-5.3c3.15,9.01,10.79,17.96,28.7,17.96,10.06,0,18.59-3.43,25.36-10.19,4.28-4.28,7.23-9.67,8.82-16.05l40-5.27m5-5.7l-49.2,6.48c-1.1,7-3.83,12.67-8.16,17.01-5.82,5.82-13.09,8.72-21.82,8.72-14.16,0-22.51-6.16-25.04-18.49l-49.29,6.49c.94,16.14,5.92,28.81,14.95,38.03,10.08,10.29,23.64,15.44,40.68,15.44,21.2,0,38.03-8.84,50.5-26.5v22.76h47.38v-69.93h0Z"/>
    </g>
    <path class="cls-1" d="M1787.06,520.89v38.65h-43.94v-38.65h43.94m1.25-1.25h-46.44v41.15h46.44v-41.15h0Z"/>
    <path class="cls-1" d="M1788,580.43v78.47l-46.12,6.07v-84.55h46.12m1.25-1.25h-48.62v87.22l48.62-6.4v-80.82h0Z"/>
    <g>
      <polygon class="cls-1" points="1743.12 737.52 1743.12 668.59 1786.75 662.85 1786.75 737.52 1743.12 737.52"/>
      <path class="cls-1" d="M1784.25,665.7v69.32h-38.62v-64.24l38.62-5.08m5-5.7l-48.62,6.4v73.62h48.62v-80.02h0Z"/>
    </g>
    <path class="cls-1" d="M1893.67,576.69c21.63,0,39.56,5.73,53.29,17.02,4.33,3.56,8.14,7.58,11.33,11.95,6.02,8.25,10.05,18.09,11.98,29.25l-26.53,3.49h-18.79c-2.68-14.27-11.07-22.42-24.96-24.23-1.96-.26-4.09-.39-6.32-.39-7.39,0-13.69,1.63-18.74,4.85-8.7,5.54-13.87,15.92-15.39,30.86l-47.17,6.21c.27-8.97,1.52-17.36,3.72-24.97,3.56-12.3,9.71-22.95,18.3-31.66,14.65-14.85,34.59-22.38,59.27-22.38m0-1.25c-25.15,0-45.2,7.58-60.16,22.75-8.79,8.91-14.98,19.64-18.61,32.19-2.35,8.15-3.62,17.06-3.8,26.74l49.6-6.53c1.35-15.14,6.32-25.45,14.91-30.91,4.86-3.1,10.89-4.65,18.06-4.65,2.17,0,4.22,.12,6.16,.38,13.69,1.78,21.71,9.87,24.08,24.24h19.92l27.9-3.67c-1.88-11.93-6.02-22.29-12.42-31.06-3.26-4.47-7.11-8.53-11.55-12.18-14.03-11.53-32.06-17.3-54.08-17.3h0Z"/>
    <g>
      <path class="cls-1" d="M1972.23,639.65h-28.4l27.9-3.67c.19,1.21,.36,2.43,.5,3.67Z"/>
      <path class="cls-1" d="M1971.72,635.98l-27.9,3.67h28.4c-.14-1.24-.31-2.46-.5-3.67h0Z"/>
    </g>
    <g>
      <path class="cls-1" d="M1893.67,741.27c-24.33,0-43.96-7.51-58.37-22.31-14.42-14.82-21.73-34.79-21.73-59.35,0-.09,0-.19,0-.28l44.41-5.85c-.11,1.97-.17,4.02-.17,6.13,0,31.03,12.06,46.76,35.85,46.76,19.31,0,30.52-9.12,33.35-27.12h43.41c-1.89,18.35-9.58,33.32-22.89,44.52-14,11.61-32.13,17.5-53.87,17.5Z"/>
      <path class="cls-1" d="M1855.36,656.34c-.03,1.07-.05,2.16-.05,3.26,0,40.72,20.86,49.26,38.35,49.26,19.69,0,31.86-9.35,35.44-27.12h38.5c-2.26,16.59-9.38,29.75-21.65,40.09-13.56,11.24-31.15,16.93-52.29,16.93-23.63,0-42.66-7.25-56.57-21.55-13.58-13.96-20.64-32.69-21.01-55.7l39.28-5.17m5.34-5.75l-49.6,6.53c-.02,.82-.03,1.65-.03,2.48,0,25.35,7.48,45.72,22.44,61.1,14.96,15.38,35.01,23.07,60.16,23.07,22.44,0,40.94-6.03,55.48-18.08,14.54-12.26,22.55-28.57,24-48.94h-48.32c-2.08,18.08-12.46,27.12-31.17,27.12-22.24,0-33.35-14.75-33.35-44.26,0-3.17,.13-6.18,.38-9.01h0Z"/>
    </g>
    <polygon class="cls-1" points="1798.6 398.15 1751.22 404.39 1751.22 406.42 1798.6 406.42 1798.6 398.15 1798.6 398.15"/>
    <path class="cls-1" d="M1798.6,245.57v152.57l-47.38,6.24v-20.72c-12.47,17.66-29.3,26.5-50.5,26.5-17.04,0-30.6-5.14-40.68-15.43-10.09-10.29-15.12-24.88-15.12-43.8v-105.36h48.62v95.7c0,18.29,8.62,27.43,25.88,27.43,8.72,0,16-2.91,21.82-8.73,5.82-5.82,8.73-14.03,8.73-24.63v-89.77h48.62Z"/>
    <path class="cls-1" d="M2626.45,289.16l-44.93,5.91c-1.58-2.89-3.5-5.46-5.75-7.72-.43-.43-.87-.85-1.32-1.25-6.24-5.61-14.24-8.41-24.01-8.41-15.73,0-26.35,6.59-31.87,19.76-.81,1.93-1.51,3.99-2.1,6.2l-47.22,6.21c.19-1.29,.4-2.57,.63-3.83,3.03-16.43,10.04-30.14,21.03-41.12,14.96-15.38,35.01-23.07,60.16-23.07s45.09,8,60.47,24c3.81,4.13,7.14,8.62,9.98,13.45,1.85,3.14,3.49,6.43,4.93,9.87Z"/>
    <path class="cls-1" d="M2625.66,290.53c4.69,11.61,7.07,25.11,7.07,40.15v8.41h-119.27l.22,1.44c1.7,11.26,5.92,20,12.55,25.99,6.64,6.01,15.21,9.05,25.46,9.05,15.94,0,27.1-6.08,33.2-18.08h43.72c-4.43,15.52-13.45,28.01-26.81,37.15-13.86,9.47-30.72,14.28-50.11,14.28-24.48,0-44.53-7.64-59.59-22.7-15.06-15.06-22.7-35.32-22.7-60.21,0-5.19,.32-10.24,.96-15.03l44.45-5.85c-.32,1.36-.59,2.75-.83,4.15l-.24,1.46h74.02l-.24-1.46c-.81-4.88-2.19-9.31-4.08-13.19l42.21-5.56m.79-1.36l-44.93,5.91c2.27,4.15,3.86,8.95,4.77,14.4h-71.07c.34-2.04,.76-3.99,1.25-5.84l-47.22,6.21c-.73,5.13-1.1,10.51-1.1,16.15,0,25.36,7.69,45.72,23.07,61.09,15.38,15.38,35.54,23.07,60.47,23.07,19.74,0,36.68-4.83,50.81-14.49,14.13-9.66,23.38-22.8,27.74-39.43h-46.13c-5.82,12.06-16.63,18.08-32.42,18.08-9.97,0-18.18-2.91-24.62-8.73-6.44-5.81-10.5-14.23-12.16-25.25h119.07v-9.66c0-15.66-2.51-29.49-7.53-41.51h0Z"/>
    <path class="cls-1" d="M2287.05,594.46v4.04c-.91-1.28-1.86-2.5-2.84-3.67l-102.43,13.48c-7.96,13.76-11.94,30.86-11.94,51.28,0,25.77,6.33,46.24,19.01,61.41,12.47,15.17,29.51,22.76,51.12,22.76s37.5-8.21,48.32-24.63v20.89h47.38v-151.96l-48.63,6.4Zm-33.66,110.33c-22.86,0-34.29-14.65-34.29-43.95,0-14.96,3.01-26.44,9.04-34.44,6.02-8,14.44-12,25.25-12,23.07,0,34.6,15.07,34.6,45.2s-11.53,45.2-34.6,45.2Z"/>
    <path class="cls-1" d="M2452.54,312.05l-48.78,6.42c-.02-.26-.03-.53-.05-.78-1.76-24.6-13.1-36.89-34.05-36.89-23.07,0-34.6,15.07-34.6,45.2,0,.51,0,1.02,.01,1.52l-48.02,6.32v-88.27h47.38v21.51c11.02-16.83,27.22-25.25,48.63-25.25s38.75,7.58,51.43,22.75c9.62,11.7,15.52,26.55,17.72,44.55,.12,.96,.22,1.93,.32,2.91Z"/>
    <path class="cls-1" d="M2239.98,576.69c17.34,0,31.38,5.79,41.76,17.22l-97.54,12.84c1.71-2.72,3.6-5.32,5.63-7.76,12.16-14.8,29.04-22.3,50.16-22.3m0-1.25c-21.62,0-38.65,7.58-51.12,22.75-2.63,3.15-4.99,6.52-7.08,10.13l102.43-13.48c-10.81-12.93-25.56-19.4-44.23-19.4h0Z"/>
    <path class="cls-1" d="M2451.42,313.46c.35,3.98,.53,8.19,.53,12.54,0,25.35-6.2,45.74-18.41,60.6-12.37,14.8-29.35,22.31-50.48,22.31s-35.64-7.69-46.36-22.85l-2.27-3.21v204.12l-46.13,6.07V334.94l45.55-6c0,.3,.02,.59,.03,.89,.97,28.28,13.01,42.61,35.78,42.61,11.17,0,20-4.21,26.25-12.5,6.17-8.19,9.29-20.03,9.29-35.19,0-1.79-.04-3.53-.13-5.18l46.34-6.1m1.12-1.41l-48.78,6.42c.13,2.01,.19,4.1,.19,6.27,0,14.97-3.02,26.45-9.04,34.44-6.03,8.01-14.44,12-25.25,12-22.08,0-33.59-13.8-34.54-41.41-.03-.75-.04-1.5-.05-2.27l-48.02,6.32v260.62l48.63-6.4v-201.28c11.02,15.59,26.81,23.38,47.38,23.38,21.61,0,38.75-7.58,51.43-22.75,12.47-15.17,18.7-35.64,18.7-61.41,0-4.84-.22-9.49-.66-13.95h0Z"/>
    <path class="cls-1" d="M2239.53,341.36l-1.73,4.97-22.99,65.91c-7.16,20.43-16.34,34.7-27.28,42.4-11.37,7.92-28.75,11.93-51.65,11.93-3.73,0-9.7-.19-17.76-.57v-34.96h14.34c16.96,0,25.56-7.97,25.56-23.69,0-6.85-2.47-17.18-7.55-31.59l-4.53-12.83-3.13-8.85,40.82-5.37c.64,2.52,1.28,5.03,1.9,7.54,1.1,4.39,2.24,8.99,3.37,13.68l1.22,5.05,1.21-5.05c1.21-5.05,2.43-10.07,3.63-14.91,.67-2.68,1.33-5.37,2.01-8.05l42.57-5.61m1.85-1.5l-45.42,5.98c-.75,2.96-1.48,5.92-2.22,8.88-1.23,4.97-2.44,9.94-3.63,14.92-1.1-4.54-2.22-9.1-3.37-13.69-.72-2.86-1.44-5.74-2.18-8.62l-43.45,5.72,3.64,10.3,4.53,12.83c4.98,14.13,7.48,24.52,7.48,31.17,0,14.96-8.11,22.44-24.31,22.44h-15.59v37.4c8.73,.42,15.06,.63,19.01,.63,23.27,0,40.72-4.05,52.36-12.16,11.22-7.9,20.47-22.24,27.75-43.02l22.99-65.91,2.4-6.89h0Z"/>
    <path class="cls-1" d="M2184.56,347.33l-43.45,5.72-37.96-107.48h52.36l7.17,22.76c8.04,27.02,15.34,53.35,21.88,79Z"/>
    <path class="cls-1" d="M2274.27,245.57l-32.9,94.28-45.42,5.98c6.5-25.85,13.48-51.59,20.96-77.2l7.17-23.07h50.19Z"/>
    <path class="cls-1" d="M2065.58,364.26c.75,1.7,1.81,3.06,3.16,4.05,2.95,2.15,7.88,3.2,15.08,3.2h11.21v33.82c-5.61,.72-12.73,1.09-21.19,1.09-19.77,0-34.19-3.53-42.86-10.48-3.65-2.93-6.57-6.74-8.67-11.31-1.86-4.06-3.13-8.82-3.76-14.17l47.03-6.19m.8-1.37l-49.21,6.48c.6,6.02,1.94,11.28,4,15.78,2.19,4.77,5.2,8.69,9.03,11.77,8.93,7.17,23.48,10.75,43.64,10.75,9.14,0,16.62-.42,22.44-1.25v-36.16h-12.46c-6.86,0-11.64-.98-14.34-2.96-1.39-1.02-2.42-2.48-3.1-4.4h0Z"/>
    <path class="cls-1" d="M2065.43,281.11v75.12c0,2.62,.32,4.85,.96,6.66l-49.21,6.48c-.25-2.48-.37-5.1-.37-7.84v-80.42h-24v-35.54h24v-47.69h48.63v47.69h30.86v35.54h-30.86Z"/>
    <path class="cls-1" d="M2154.89,659.6c0,25.56-7.59,45.93-22.76,61.1-15.38,15.38-35.85,23.07-61.41,23.07s-46.03-7.69-61.41-23.07c-15.38-15.38-23.07-35.74-23.07-61.1,0-9.33,1.02-17.97,3.07-25.94l54.83-7.22c-5.77,7.67-8.65,18.73-8.65,33.16s3.01,25.97,9.04,33.66c6.03,7.69,14.75,11.53,26.19,11.53s19.84-3.84,25.87-11.53c6.02-7.69,9.04-18.91,9.04-33.66s-3.01-25.98-9.04-33.67c-1.72-2.19-3.65-4.07-5.79-5.64l52.96-6.97c7.42,12.83,11.12,28.26,11.12,46.27Z"/>
    <path class="cls-1" d="M2070.72,576.69c11.13,0,21.4,1.46,30.52,4.33l.15,.05c11.53,3.67,21.57,9.73,29.86,18.01,4.02,4.02,7.54,8.47,10.47,13.26l-50.58,6.66c-5.49-3.88-12.36-5.84-20.41-5.84-11.78,0-20.92,4.04-27.17,12.01-.03,.04-.06,.07-.09,.11l-52.46,6.91c3.6-12.83,10.04-23.96,19.19-33.1,.84-.84,1.73-1.69,2.65-2.53,14.56-13.18,34.03-19.86,57.87-19.86m0-1.25c-24.27,0-43.84,6.73-58.71,20.18-.92,.83-1.82,1.69-2.7,2.57-9.77,9.77-16.44,21.59-19.99,35.47l54.83-7.22c.13-.17,.25-.34,.39-.51,6.03-7.69,14.75-11.53,26.19-11.53,8.02,0,14.71,1.96,20.08,5.9l52.96-6.97c-3.19-5.53-7.07-10.57-11.63-15.14-8.5-8.5-18.67-14.63-30.51-18.37h0c-9.28-2.93-19.58-4.39-30.89-4.39h0Z"/>
    <path class="cls-1" d="M2523.02,664.27c0-27.01-7.48-48.62-22.44-64.83-15.38-16-35.54-24-60.47-24s-45.2,7.69-60.16,23.07c-15.17,15.17-22.75,35.54-22.75,61.1s7.68,45.72,23.07,61.1c15.37,15.38,35.53,23.07,60.47,23.07,19.74,0,36.67-4.84,50.81-14.5,14.14-9.67,23.38-22.8,27.74-39.43h-46.13c-5.82,12.06-16.63,18.08-32.42,18.08-9.97,0-18.19-2.91-24.63-8.73-6.44-5.81-10.5-14.23-12.16-25.25h119.08v-9.67Zm-118.76-21.2c3.53-21.2,15.27-31.79,35.23-31.79,9.76,0,17.77,2.81,24,8.42,6.23,5.61,10.18,13.41,11.85,23.38h-71.07Z"/>
  </g>
</svg>