<?xml version="1.0" encoding="UTF-8"?>
<svg id="Calque_1" data-name="Calque 1" xmlns="http://www.w3.org/2000/svg" viewBox="0 0 4000 1000">
  <defs>
    <style>
      .cls-1 {
        fill: #1b273d;
      }

      .cls-1, .cls-2 {
        stroke-width: 0px;
      }

      .cls-2 {
        fill: #fff;
      }
    </style>
  </defs>
  <g id="Calque_2" data-name="Calque 2">
    <rect class="cls-1" width="4000" height="1000"/>
  </g>
  <g id="Calque_1-2" data-name="Calque 1">
    <path class="cls-2" d="m2691.68,140.25v718.5h-1384.36V140.25h1384.35m15.75-15.75h-1415.85v750h1415.85V124.5h0Z"/>
    <g>
      <path class="cls-2" d="m1872.78,390.9v13.02h-43.63v-7.27l43.63-5.74m2.5-2.85l-48.63,6.4v11.97h48.63v-18.37h0Z"/>
      <path class="cls-2" d="m1977.83,377.07v26.85h-43.63v-21.1l43.63-5.74m2.5-2.85l-48.63,6.4v25.8h48.63v-32.2h0Z"/>
      <path class="cls-2" d="m1435.15,577.94c20.7,0,35.82,7.69,46.23,23.5l4.59,6.97v-26.73h42.38v110.15l-55.68,7.33c2.45-2.2,4.57-4.85,6.32-7.92,4.42-7.72,6.66-18.37,6.66-31.63,0-15.56-3.08-27.47-9.17-35.42-6.24-8.15-15.64-12.28-27.94-12.28-11.58,0-20.75,4.37-27.24,13-6.33,8.4-9.54,20.49-9.54,35.95,0,19.08,4.85,32.47,14.42,39.79,1.98,1.52,4.16,2.78,6.55,3.78l-52.59,6.92c-.91-1.48-1.79-3.02-2.61-4.59-6.64-12.8-10.01-28.66-10.01-47.14,0-25.05,6.2-45.17,18.45-59.82,11.91-14.49,28.46-21.84,49.19-21.84m0-2.5c-21.61,0-38.65,7.58-51.12,22.75-12.68,15.17-19.01,35.64-19.01,61.41,0,18.97,3.43,35.07,10.29,48.29,1.1,2.12,2.29,4.16,3.57,6.13l70.11-9.23h-.44c-8.55,0-15.5-2.05-20.85-6.15-8.96-6.86-13.44-19.46-13.44-37.81,0-14.96,3.01-26.44,9.04-34.44s14.44-12,25.25-12c23.07,0,34.6,15.07,34.6,45.2,0,12.88-2.11,23.01-6.33,30.39-3.9,6.82-9.6,11.29-17.12,13.39l71.14-9.37v-114.84h-47.38v20.88c-10.8-16.41-26.91-24.62-48.32-24.62h0v.02Z"/>
      <path class="cls-2" d="m1710.07,581.68v86.22l-43.83,5.77c.13-1.53.2-3.1.2-4.72v-87.27h43.63m2.5-2.5h-48.63v89.77c0,2.69-.19,5.23-.57,7.62l49.2-6.48v-90.91h0Z"/>
      <path class="cls-2" d="m1605.03,581.68v93.19c0,2.4.15,4.68.43,6.8l-44.02,5.79c-.03-.96-.04-1.94-.04-2.94v-102.86h43.63m2.5-2.5h-48.63v105.36c0,1.97.05,3.89.17,5.77l49.29-6.49c-.55-2.69-.83-5.67-.83-8.94v-95.69h0Z"/>
      <path class="cls-2" d="m1785.81,522.14v36.15h-41.44v-36.15h41.44m2.5-2.5h-46.44v41.15h46.44v-41.15h0Z"/>
      <path class="cls-2" d="m1786.75,581.68v76.13l-43.62,5.74v-81.87h43.62m2.5-2.5h-48.62v87.22l48.62-6.4v-80.82h0Z"/>
      <path class="cls-2" d="m1893.67,577.94c21.33,0,38.99,5.63,52.5,16.73,4.25,3.49,7.99,7.43,11.12,11.72,5.68,7.78,9.55,17,11.53,27.45l-25.15,3.31h-17.68c-2.99-14.23-11.67-22.38-25.83-24.22-2.02-.27-4.2-.4-6.48-.4-7.63,0-14.16,1.7-19.41,5.04-8.84,5.63-14.17,15.99-15.85,30.8l-44.72,5.89c.36-8.31,1.57-16.1,3.61-23.19,3.5-12.1,9.55-22.57,17.99-31.13,14.4-14.6,34.05-22.01,58.38-22.01m0-2.5c-25.15,0-45.2,7.58-60.16,22.75-8.79,8.91-14.98,19.64-18.61,32.19-2.35,8.15-3.62,17.06-3.8,26.74l49.6-6.53c1.35-15.14,6.32-25.45,14.91-30.91,4.86-3.1,10.89-4.65,18.06-4.65,2.17,0,4.22.12,6.16.38,13.69,1.78,21.71,9.87,24.08,24.24h19.92l27.9-3.67c-1.88-11.93-6.02-22.29-12.42-31.06-3.26-4.47-7.11-8.53-11.55-12.18-14.03-11.53-32.06-17.3-54.08-17.3h-.01Z"/>
      <path class="cls-2" d="m2624.86,291.89c4.4,11.26,6.63,24.3,6.63,38.78v7.16h-119.47l.43,2.87c1.74,11.55,6.1,20.55,12.95,26.73,6.88,6.22,15.73,9.37,26.3,9.37,16.14,0,27.56-6.08,33.95-18.08h41.28c-4.5,14.5-13.18,26.22-25.84,34.87-13.65,9.33-30.27,14.06-49.4,14.06-24.14,0-43.89-7.51-58.7-22.34-14.82-14.82-22.34-34.78-22.34-59.32,0-4.79.28-9.46.83-13.92l41.73-5.49c-.17.82-.32,1.64-.46,2.48l-.48,2.91h76.97l-.49-2.91c-.73-4.36-1.89-8.37-3.47-11.97l39.56-5.21m1.59-2.73l-44.93,5.91c2.27,4.15,3.86,8.95,4.77,14.4h-71.07c.34-2.04.76-3.99,1.25-5.84l-47.22,6.21c-.73,5.13-1.1,10.51-1.1,16.15,0,25.36,7.69,45.72,23.07,61.09,15.38,15.38,35.54,23.07,60.47,23.07,19.74,0,36.68-4.83,50.81-14.49,14.13-9.66,23.38-22.8,27.74-39.43h-46.13c-5.82,12.06-16.63,18.08-32.42,18.08-9.97,0-18.18-2.91-24.62-8.73-6.44-5.81-10.5-14.23-12.16-25.25h119.07v-9.66c0-15.66-2.51-29.49-7.53-41.51h0Z"/>
      <path class="cls-2" d="m2239.98,577.94c16.06,0,29.2,5.06,39.16,15.05l-92.41,12.16c1.27-1.86,2.63-3.66,4.06-5.37,11.91-14.49,28.46-21.84,49.19-21.84m0-2.5c-21.62,0-38.65,7.58-51.12,22.75-2.63,3.15-4.99,6.52-7.08,10.13l102.43-13.48c-10.81-12.93-25.56-19.4-44.23-19.4h0Z"/>
      <path class="cls-2" d="m2450.28,314.87c.28,3.56.42,7.29.42,11.13,0,25.05-6.1,45.18-18.12,59.8-12.12,14.5-28.78,21.86-49.52,21.86s-34.72-7.3-45.34-22.32l-4.54-6.43v206.96l-43.63,5.75v-255.58l43.09-5.67c.55,14.07,3.88,24.86,9.9,32.08,6.23,7.46,15.35,11.25,27.11,11.25s20.75-4.37,27.25-13c6.33-8.41,9.54-20.5,9.54-35.95,0-1.4-.03-2.77-.08-4.09l43.91-5.78m2.26-2.82l-48.78,6.42c.13,2.01.19,4.1.19,6.27,0,14.97-3.02,26.45-9.04,34.44-6.03,8.01-14.44,12-25.25,12-22.08,0-33.59-13.8-34.54-41.41-.03-.74-.04-1.5-.05-2.27l-48.02,6.32v260.62l48.63-6.4v-201.28c11.02,15.59,26.81,23.38,47.38,23.38,21.61,0,38.75-7.59,51.43-22.75,12.47-15.17,18.7-35.64,18.7-61.4,0-4.84-.22-9.49-.66-13.95h.01Z"/>
      <path class="cls-2" d="m2237.68,342.86l-1.07,3.05-22.99,65.91c-7.07,20.18-16.09,34.25-26.81,41.79-11.16,7.77-28.3,11.71-50.94,11.71-3.52,0-9.07-.17-16.51-.51v-32.52h13.09c17.54,0,26.81-8.62,26.81-24.94,0-6.99-2.49-17.46-7.62-32.01l-4.53-12.83-2.61-7.39,38.19-5.03c.55,2.16,1.09,4.31,1.63,6.46,1.1,4.39,2.23,8.98,3.37,13.67l2.45,10.1,2.41-10.11c1.2-5.05,2.42-10.06,3.62-14.9.6-2.41,1.2-4.82,1.8-7.23l39.72-5.23m3.7-3.01l-45.42,5.98c-.75,2.96-1.48,5.92-2.22,8.88-1.23,4.97-2.44,9.94-3.63,14.92-1.1-4.54-2.22-9.1-3.37-13.69-.72-2.86-1.44-5.74-2.18-8.62l-43.45,5.72,3.64,10.3,4.53,12.83c4.98,14.13,7.48,24.52,7.48,31.17,0,14.96-8.11,22.44-24.31,22.44h-15.59v37.4c8.73.42,15.06.63,19.01.63,23.27,0,40.72-4.05,52.36-12.16,11.22-7.9,20.47-22.24,27.75-43.02l22.99-65.91,2.4-6.89h0v.02Z"/>
      <path class="cls-2" d="m2064.85,365.62c.8,1.51,1.86,2.75,3.16,3.7,3.17,2.32,8.34,3.44,15.82,3.44h9.96v31.46c-5.38.63-12.08.95-19.94.95-19.48,0-33.64-3.43-42.07-10.2-3.5-2.81-6.3-6.46-8.32-10.86-1.66-3.63-2.84-7.85-3.5-12.58l44.9-5.91m1.54-2.72l-49.21,6.48c.6,6.02,1.94,11.28,4,15.78,2.19,4.77,5.2,8.69,9.03,11.77,8.93,7.17,23.48,10.75,43.64,10.75,9.14,0,16.62-.42,22.44-1.25v-36.16h-12.46c-6.86,0-11.64-.98-14.34-2.96-1.39-1.02-2.42-2.48-3.1-4.4h0Z"/>
      <path class="cls-2" d="m2070.72,577.94c11.01,0,21.15,1.44,30.14,4.27l.21.07c11.31,3.61,21.16,9.56,29.28,17.68,3.49,3.49,6.59,7.31,9.25,11.39l-48.17,6.34c-5.64-3.84-12.61-5.79-20.73-5.79-12.04,0-21.43,4.11-27.92,12.2l-50.05,6.59c3.62-11.85,9.78-22.17,18.34-30.73.82-.83,1.7-1.66,2.61-2.48,14.32-12.96,33.51-19.54,57.03-19.54m0-2.5c-24.27,0-43.84,6.73-58.71,20.18-.92.83-1.82,1.69-2.7,2.57-9.77,9.77-16.44,21.59-19.99,35.47l54.83-7.22c.13-.17.25-.34.39-.51,6.03-7.69,14.75-11.53,26.19-11.53,8.02,0,14.71,1.96,20.08,5.9l52.96-6.97c-3.19-5.53-7.07-10.57-11.63-15.14-8.5-8.5-18.67-14.63-30.51-18.37h0c-9.28-2.93-19.58-4.39-30.89-4.39h-.02Z"/>
      <path class="cls-2" d="m1796.1,401v2.92h-22.19l22.19-2.92m2.5-2.85l-47.38,6.24v2.03h47.38v-8.27h0Z"/>
      <g>
        <path class="cls-2" d="m1962.91,638.4l7.76-1.02c.05.34.1.68.14,1.02h-7.9Z"/>
        <path class="cls-2" d="m1971.72,635.98l-27.9,3.67h28.4c-.14-1.24-.31-2.46-.5-3.67h0Z"/>
      </g>
    </g>
    <g>
      <g>
        <path class="cls-2" d="m1829.15,248.07h42.38v28.13l4.54-6.43c12.09-17.12,27.94-25.44,48.46-25.44,16.26,0,29.35,4.94,38.89,14.68,9.56,9.76,14.4,23.9,14.4,42.05v70.97l-43.63,5.74v-67.05c0-19.58-9.81-29.93-28.37-29.93-9.37,0-17.31,3.18-23.59,9.46-6.28,6.28-9.46,15.16-9.46,26.4v69.21l-43.63,5.74v-143.53h0Z"/>
        <path class="cls-2" d="m1924.53,246.84c15.78,0,27.92,4.56,37.1,13.93,9.08,9.27,13.69,22.83,13.69,40.3v68.78l-38.63,5.08v-64.2c0-20.91-10.96-32.43-30.87-32.43-10.06,0-18.59,3.43-25.36,10.19-6.76,6.77-10.19,16.24-10.19,28.16v67.02l-38.63,5.08v-138.18h37.38v33.51l9.08-12.87c11.58-16.4,26.77-24.38,46.42-24.38m0-5c-21.2,0-38.03,8.83-50.5,26.5v-22.76h-47.38v148.88l48.63-6.4v-71.41c0-10.6,2.91-18.81,8.73-24.63,5.82-5.81,13.09-8.73,21.82-8.73,17.25,0,25.87,9.15,25.87,27.43v69.9l48.63-6.4v-73.16c0-18.91-5.04-33.51-15.12-43.8-10.08-10.29-23.64-15.43-40.68-15.43h0Z"/>
      </g>
      <g>
        <path class="cls-2" d="m1484.72,798.62v-85.7l-4.53,6.33c-10.61,14.82-25.34,22.02-45.04,22.02-20.72,0-37.27-7.35-49.19-21.85-.94-1.12-1.84-2.27-2.7-3.45l65.91-8.68c3.99-.04,7.69-.53,11.03-1.45l68.15-8.97v101.75h-43.63Z"/>
        <path class="cls-2" d="m1525.84,699.72v96.4h-38.63v-90.99l-9.07,12.66c-10.11,14.12-24.18,20.98-43,20.98-20.18,0-35.62-6.82-47.22-20.89l61.41-8.08c4.06-.05,7.88-.56,11.35-1.49l65.16-8.58m5-5.7l-71.14,9.37h0c-3.23.91-6.79,1.38-10.69,1.41h-.02l-70.11,9.23c1.58,2.44,3.3,4.77,5.15,6.98,12.47,15.17,29.51,22.76,51.12,22.76,20.37,0,36.06-7.69,47.07-23.07v80.42h48.63v-107.1h-.01Z"/>
      </g>
      <g>
        <path class="cls-2" d="m1614.69,741.27c-16.26,0-29.34-4.94-38.89-14.69-8.12-8.28-12.85-19.75-14.07-34.1l44.73-5.89c3.33,12.09,12.38,18.21,26.95,18.21,9.37,0,17.31-3.18,23.59-9.46,4.31-4.31,7.17-9.87,8.53-16.54l44.56-5.87v64.58h-42.38v-28.13l-4.54,6.43c-12.09,17.12-27.94,25.44-48.46,25.44l-.02.02Z"/>
        <path class="cls-2" d="m1707.57,675.79v59.23h-37.38v-33.51l-9.08,12.87c-11.58,16.41-26.77,24.39-46.42,24.39-15.78,0-27.92-4.56-37.11-13.94-7.25-7.4-11.66-17.54-13.13-30.19l40.24-5.3c3.15,9.01,10.79,17.96,28.7,17.96,10.06,0,18.59-3.43,25.36-10.19,4.28-4.28,7.23-9.67,8.82-16.05l40-5.27m5-5.7l-49.2,6.48c-1.1,7-3.83,12.67-8.16,17.01-5.82,5.82-13.09,8.72-21.82,8.72-14.16,0-22.51-6.16-25.04-18.49l-49.29,6.49c.94,16.14,5.92,28.81,14.95,38.03,10.08,10.29,23.64,15.44,40.68,15.44,21.2,0,38.03-8.84,50.5-26.5v22.76h47.38v-69.93h0Z"/>
      </g>
      <g>
        <polygon class="cls-2" points="1743.12 737.52 1743.12 668.59 1786.75 662.85 1786.75 737.52 1743.12 737.52"/>
        <path class="cls-2" d="m1784.25,665.7v69.32h-38.62v-64.24l38.62-5.08m5-5.7l-48.62,6.4v73.62h48.62v-80.02h0Z"/>
      </g>
      <g>
        <path class="cls-2" d="m1893.67,741.27c-24.33,0-43.96-7.51-58.37-22.31-14.42-14.82-21.73-34.79-21.73-59.35v-.28l44.41-5.85c-.11,1.97-.17,4.02-.17,6.13,0,31.03,12.06,46.76,35.85,46.76,19.31,0,30.52-9.12,33.35-27.12h43.41c-1.89,18.35-9.58,33.32-22.89,44.52-14,11.61-32.13,17.5-53.87,17.5h.01Z"/>
        <path class="cls-2" d="m1855.36,656.34c-.03,1.07-.05,2.16-.05,3.26,0,40.72,20.86,49.26,38.35,49.26,19.69,0,31.86-9.35,35.44-27.12h38.5c-2.26,16.59-9.38,29.75-21.65,40.09-13.56,11.24-31.15,16.93-52.29,16.93-23.63,0-42.66-7.25-56.57-21.55-13.58-13.96-20.64-32.69-21.01-55.7l39.28-5.17m5.34-5.75l-49.6,6.53c-.02.82-.03,1.65-.03,2.48,0,25.35,7.48,45.72,22.44,61.1s35.01,23.07,60.16,23.07c22.44,0,40.94-6.03,55.48-18.08,14.54-12.26,22.55-28.57,24-48.94h-48.32c-2.08,18.08-12.46,27.12-31.17,27.12-22.24,0-33.35-14.75-33.35-44.26,0-3.17.13-6.18.38-9.01h.01Z"/>
      </g>
      <path class="cls-2" d="m1798.6,245.57v152.57l-47.38,6.24v-20.72c-12.47,17.66-29.3,26.5-50.5,26.5-17.04,0-30.6-5.14-40.68-15.43-10.09-10.29-15.12-24.88-15.12-43.8v-105.36h48.62v95.7c0,18.29,8.62,27.43,25.88,27.43,8.72,0,16-2.91,21.82-8.73s8.73-14.03,8.73-24.63v-89.77h48.63Z"/>
      <path class="cls-2" d="m2626.45,289.16l-44.93,5.91c-1.58-2.89-3.5-5.46-5.75-7.72-.43-.43-.87-.85-1.32-1.25-6.24-5.61-14.24-8.41-24.01-8.41-15.73,0-26.35,6.59-31.87,19.76-.81,1.93-1.51,3.99-2.1,6.2l-47.22,6.21c.19-1.29.4-2.57.63-3.83,3.03-16.43,10.04-30.14,21.03-41.12,14.96-15.38,35.01-23.07,60.16-23.07s45.09,8,60.47,24c3.81,4.13,7.14,8.62,9.98,13.45,1.85,3.14,3.49,6.43,4.93,9.87h0Z"/>
      <path class="cls-2" d="m2287.05,594.46v4.04c-.91-1.28-1.86-2.5-2.84-3.67l-102.43,13.48c-7.96,13.76-11.94,30.86-11.94,51.28,0,25.77,6.33,46.24,19.01,61.41,12.47,15.17,29.51,22.76,51.12,22.76s37.5-8.21,48.32-24.63v20.89h47.38v-151.96l-48.63,6.4h0Zm-33.66,110.33c-22.86,0-34.29-14.65-34.29-43.95,0-14.96,3.01-26.44,9.04-34.44,6.02-8,14.44-12,25.25-12,23.07,0,34.6,15.07,34.6,45.2s-11.53,45.2-34.6,45.2h0Z"/>
      <path class="cls-2" d="m2452.54,312.05l-48.78,6.42c-.02-.26-.03-.53-.05-.78-1.76-24.6-13.1-36.89-34.05-36.89-23.07,0-34.6,15.07-34.6,45.2,0,.51,0,1.02.01,1.52l-48.02,6.32v-88.27h47.38v21.51c11.02-16.83,27.22-25.25,48.63-25.25s38.75,7.58,51.43,22.75c9.62,11.7,15.52,26.55,17.72,44.55.12.96.22,1.93.32,2.91h.01Z"/>
      <path class="cls-2" d="m2184.56,347.33l-43.45,5.72-37.96-107.48h52.36l7.17,22.76c8.04,27.02,15.34,53.35,21.88,79Z"/>
      <path class="cls-2" d="m2274.27,245.57l-32.9,94.28-45.42,5.98c6.5-25.85,13.48-51.59,20.96-77.2l7.17-23.07h50.19Z"/>
      <path class="cls-2" d="m2065.43,281.11v75.12c0,2.62.32,4.85.96,6.66l-49.21,6.48c-.25-2.48-.37-5.1-.37-7.84v-80.42h-24v-35.54h24v-47.69h48.63v47.69h30.86v35.54h-30.87Z"/>
      <path class="cls-2" d="m2154.89,659.6c0,25.56-7.59,45.93-22.76,61.1-15.38,15.38-35.85,23.07-61.41,23.07s-46.03-7.69-61.41-23.07-23.07-35.74-23.07-61.1c0-9.33,1.02-17.97,3.07-25.94l54.83-7.22c-5.77,7.67-8.65,18.73-8.65,33.16s3.01,25.97,9.04,33.66c6.03,7.69,14.75,11.53,26.19,11.53s19.84-3.84,25.87-11.53c6.02-7.69,9.04-18.91,9.04-33.66s-3.01-25.98-9.04-33.67c-1.72-2.19-3.65-4.07-5.79-5.64l52.96-6.97c7.42,12.83,11.12,28.26,11.12,46.27h0Z"/>
      <path class="cls-2" d="m2523.02,664.27c0-27.01-7.48-48.62-22.44-64.83-15.38-16-35.54-24-60.47-24s-45.2,7.69-60.16,23.07c-15.17,15.17-22.75,35.54-22.75,61.1s7.68,45.72,23.07,61.1c15.37,15.38,35.53,23.07,60.47,23.07,19.74,0,36.67-4.84,50.81-14.5,14.14-9.67,23.38-22.8,27.74-39.43h-46.13c-5.82,12.06-16.63,18.08-32.42,18.08-9.97,0-18.19-2.91-24.63-8.73-6.44-5.81-10.5-14.23-12.16-25.25h119.08v-9.67h-.01Zm-118.76-21.2c3.53-21.2,15.27-31.79,35.23-31.79,9.76,0,17.77,2.81,24,8.42s10.18,13.41,11.85,23.38h-71.08Z"/>
    </g>
  </g>
</svg>